#!OML:ASF Y:\EmotionMaleHayes\Project 1\Capture day 1\Session 1\Male1.ASF
:FULLY-SPECIFIED
:DEGREES
154
root -15.0009 16.5383 0.658492 105.65 77.378 104.088
lowerback 9.21262 -0.416767 -17.7176
upperback 3.69253 -1.85635 -1.84796
thorax -0.647502 -0.984922 8.12062
lowerneck -21.8561 3.34227 4.58942
upperneck 15.1992 3.5584 -2.13992
head 8.42911 1.72285 -0.988916
rclavicle 1.46681e-014 5.34172e-014
rhumerus -48.1679 1.96474 -82.12
rradius 32.9649
rwrist -0.502436
rhand -8.46455 -31.9369
rfingers 7.12502
rthumb 17.4618 -61.1726
lclavicle 1.46681e-014 5.34172e-014
lhumerus -11.4842 -22.0875 85.2392
lradius 46.8593
lwrist 3.05372
lhand -18.3642 -27.0788
lfingers 7.12502
lthumb 7.91884 2.75289
rfemur -31.6828 -7.01443 4.41525
rtibia 21.6035
rfoot -7.72811 -10.0573
rtoes 30.6481
lfemur 18.2588 -0.416058 -34.8179
ltibia 4.24941
lfoot -20.9716 2.96762
ltoes -8.50016
155
root -14.8127 16.4929 0.663068 107.066 77.2064 105.317
lowerback 9.17258 -0.527982 -17.9078
upperback 3.57957 -2.02845 -1.74888
thorax -0.688961 -1.06539 8.34777
lowerneck -21.5841 3.32322 4.14097
upperneck 14.8436 3.5621 -1.55569
head 8.2422 1.76171 -0.723268
rclavicle -3.47873e-015 4.26642e-014
rhumerus -48.3144 1.46193 -81.537
rradius 32.6839
rwrist 0.168209
rhand -7.82738 -32.219
rfingers 7.12502
rthumb 18.0749 -61.3992
lclavicle -3.47873e-015 4.26642e-014
lhumerus -11.2672 -22.1144 85.1647
lradius 47.5535
lwrist 3.24819
lhand -18.5303 -27.5371
lfingers 7.12502
lthumb 7.7585 2.30052
rfemur -31.5771 -6.89213 3.8776
rtibia 18.7002
rfoot -8.01465 -9.06809
rtoes 28.4184
lfemur 18.7874 -0.510951 -34.7881
ltibia 4.29567
lfoot -21.2511 2.58142
ltoes -8.0086
156
root -14.6177 16.4451 0.666944 108.204 77.0462 106.25
lowerback 8.86053 -0.641095 -17.9391
upperback 3.60991 -2.10923 -1.75023
thorax -0.457495 -1.12742 8.35809
lowerneck -21.8782 3.30162 4.2431
upperneck 14.9191 3.4848 -1.5413
head 8.31681 1.73114 -0.741277
rclavicle -1.66482e-015 7.27055e-014
rhumerus -48.1896 0.706381 -81.0457
rradius 32.3525
rwrist 0.903105
rhand -7.66056 -32.134
rfingers 7.12502
rthumb 18.2354 -61.2992
lclavicle -1.66482e-015 7.27055e-014
lhumerus -10.7963 -22.2808 84.9199
lradius 48.0504
lwrist 3.10558
lhand -18.9588 -27.9886
lfingers 7.12502
lthumb 7.34493 1.86395
rfemur -31.6111 -6.77991 3.40335
rtibia 16.3011
rfoot -8.86938 -7.7836
rtoes 23.3478
lfemur 19.2825 -0.606227 -34.7853
ltibia 4.4529
lfoot -21.5684 2.33084
ltoes -8.26584
157
root -14.4194 16.396 0.668326 108.97 76.6403 106.847
lowerback 8.5188 -0.748957 -18.1436
upperback 3.68214 -2.17843 -1.85717
thorax -0.160307 -1.18922 8.34419
lowerneck -22.3798 3.31054 4.74839
upperneck 15.1936 3.41429 -2.03072
head 8.51156 1.6723 -0.991472
rclavicle 1.90958e-014 3.4837e-014
rhumerus -48.0792 -0.159225 -80.593
rradius 31.9875
rwrist 1.43053
rhand -7.97634 -31.6034
rfingers 7.12502
rthumb 17.9316 -60.7967
lclavicle 1.90958e-014 3.4837e-014
lhumerus -10.2572 -22.5579 84.6366
lradius 48.4786
lwrist 3.17575
lhand -19.3361 -28.21
lfingers 7.12502
lthumb 6.98072 1.65486
rfemur -31.6714 -6.6563 2.58087
rtibia 14.3713
rfoot -9.67868 -6.4775
rtoes 16.8837
lfemur 19.8144 -0.657272 -35.0759
ltibia 4.6156
lfoot -21.8957 2.18405
ltoes -9.64238
158
root -14.2226 16.3469 0.671481 109.816 76.0876 107.615
lowerback 8.39944 -0.869594 -18.5978
upperback 3.68914 -2.33829 -1.8941
thorax -0.0148172 -1.28356 8.55751
lowerneck -22.5571 3.36731 4.9662
upperneck 15.2316 3.4744 -2.333
head 8.56651 1.67904 -1.11921
rclavicle -4.78326e-015 1.62506e-014
rhumerus -48.1593 -0.697605 -80.1509
rradius 31.8147
rwrist 1.83612
rhand -8.16065 -31.0206
rfingers 7.12502
rthumb 17.7543 -60.2301
lclavicle -4.78326e-015 1.62506e-014
lhumerus -9.97963 -22.6382 84.543
lradius 48.9703
lwrist 3.40181
lhand -19.5593 -28.4806
lfingers 7.12502
lthumb 6.7653 1.39129
rfemur -31.6277 -6.46504 1.46684
rtibia 12.9104
rfoot -10.8351 -5.24645
rtoes 15.1696
lfemur 20.3758 -0.768409 -35.5196
ltibia 4.83397
lfoot -22.1285 1.89142
ltoes -10.5207
159
root -14.0241 16.2953 0.677288 111.105 75.7962 108.852
lowerback 8.26631 -1.03111 -18.7841
upperback 3.71355 -2.53109 -1.82441
thorax 0.15733 -1.39931 8.74039
lowerneck -22.4796 3.42588 4.91071
upperneck 14.9712 3.58436 -2.39741
head 8.46862 1.71978 -1.11832
rclavicle 1.02126e-014 -6.4605e-015
rhumerus -48.1203 -1.10707 -79.7514
rradius 31.6273
rwrist 2.21607
rhand -8.32313 -30.5998
rfingers 7.12502
rthumb 17.5979 -59.8234
lclavicle 1.02126e-014 -6.4605e-015
lhumerus -9.91254 -22.5529 84.5109
lradius 49.6176
lwrist 3.53122
lhand -19.825 -28.8416
lfingers 7.12502
lthumb 6.50875 1.03836
rfemur -31.6565 -6.13419 0.734009
rtibia 12.0223
rfoot -11.3587 -4.16849
rtoes 16.6028
lfemur 20.9255 -1.02824 -35.6721
ltibia 5.15239
lfoot -22.2715 1.66302
ltoes -10.5243
